# xmcd
#
# Track frame offsets: 
#        150
#        2585
#        9987
#        21885
#        30206
#        41546
#        53697
#        66038
#        73908
#        83863
#        91826
#        106636
#        113097
#        124204
#        132273
#
# Disc length: 1804 seconds
#
# Revision: 0
# Processed by: cddbd v1.5.1PL0 Copyright (c) Steve Scherf et al.
# Submitted via: ExactAudioCopy v0.95a5
#
DISCID=ae070a0f
DTITLE=Various Artist - KTOH Volume 2 of 3
DYEAR=1945
DGENRE=Country
TTITLE0=Opening Theme - The Pacific Ramblers
TTITLE1=The Darktown Strutter's Ball - The Pacific Ramblers
TTITLE2=Yellow Rose Of Texas - Gladys and Ida
TTITLE3=Over The Waves - The Pacific Ramblers
TTITLE4=Clementine - Don
TTITLE5=I'll Get Along - William L. "Red" Halleron
TTITLE6=Sweethearts Or Strangers - Ida
TTITLE7=Alabama Jubilee - The Pacific Ramblers
TTITLE8=Sierra Slew - Don
TTITLE9=Sally Goodin - Pappy Adams
TTITLE10=I Wonder Where You Are Tonight - Mary Jane
TTITLE11=Fortescue #1 - Pappy Adams
TTITLE12=Let The Rest Of The World Go By - Don
TTITLE13=Fortescue #2 - The Pacific Ramblers
TTITLE14=Closing Theme - The Pacific Ramblers
EXTD=
EXTT0=
EXTT1=
EXTT2=
EXTT3=
EXTT4=
EXTT5=
EXTT6=
EXTT7=
EXTT8=
EXTT9=
EXTT10=
EXTT11=
EXTT12=
EXTT13=
EXTT14=
PLAYORDER=
